<svg width="17" height="11" viewBox="0 0 17 11" fill="none" xmlns="http://www.w3.org/2000/svg">
    <path
        d="M7.1875 9.83342C7.1875 10.0489 7.32578 10.2556 7.57192 10.4079C7.81806 10.5603 8.1519 10.6459 8.5 10.6459C8.8481 10.6459 9.18194 10.5603 9.42808 10.4079C9.67422 10.2556 9.8125 10.0489 9.8125 9.83342V6.31258H15.5C15.8481 6.31258 16.1819 6.22698 16.4281 6.07461C16.6742 5.92223 16.8125 5.71557 16.8125 5.50008C16.8125 5.28459 16.6742 5.07793 16.4281 4.92556C16.1819 4.77318 15.8481 4.68758 15.5 4.68758H9.8125V1.16675C9.8125 0.95126 9.67422 0.744597 9.42808 0.592224C9.18194 0.439851 8.8481 0.354248 8.5 0.354248C8.1519 0.354248 7.81806 0.439851 7.57192 0.592224C7.32578 0.744597 7.1875 0.95126 7.1875 1.16675V4.68758H1.5C1.1519 4.68758 0.818064 4.77318 0.571922 4.92556C0.325781 5.07793 0.1875 5.28459 0.1875 5.50008C0.1875 5.71557 0.325781 5.92223 0.571922 6.07461C0.818064 6.22698 1.1519 6.31258 1.5 6.31258H7.1875V9.83342Z"
        fill="black" />
</svg>