<svg width="50" height="50" viewBox="0 0 50 50" fill="none" xmlns="http://www.w3.org/2000/svg">
    <path
        d="M26.5 46.5H3C2.60218 46.5 2.22064 46.342 1.93934 46.0607C1.65804 45.7794 1.5 45.3978 1.5 45V3C1.5 2.60218 1.65804 2.22064 1.93934 1.93934C2.22064 1.65804 2.60218 1.5 3 1.5H45C45.3978 1.5 45.7794 1.65804 46.0607 1.93934C46.342 2.22064 46.5 2.60218 46.5 3V26.5M34 41.5H41.5M41.5 41.5H49M41.5 41.5V34M41.5 41.5V49"
        stroke="#736C6C" stroke-width="1.5" stroke-linecap="round" stroke-linejoin="round" />
    <path
        d="M18.745 15.2826C18.517 15.1521 18.2588 15.0838 17.9962 15.0845C17.7335 15.0852 17.4756 15.1548 17.2483 15.2864C17.021 15.418 16.8323 15.607 16.701 15.8345C16.5696 16.0619 16.5003 16.3199 16.5 16.5826V31.4151C16.4999 31.6779 16.5689 31.9362 16.7 32.164C16.8312 32.3918 17.0199 32.5812 17.2472 32.7131C17.4746 32.845 17.7327 32.9149 17.9955 32.9156C18.2584 32.9164 18.5168 32.8481 18.745 32.7176L31.72 25.3026C31.9497 25.1714 32.1406 24.9818 32.2733 24.7531C32.4061 24.5243 32.476 24.2645 32.476 24.0001C32.476 23.7356 32.4061 23.4758 32.2733 23.2471C32.1406 23.0183 31.9497 22.8287 31.72 22.6976L18.745 15.2826Z"
        stroke="#736C6C" stroke-width="1.5" stroke-linecap="round" stroke-linejoin="round" />
</svg>