<svg width="24" height="24" viewBox="0 0 24 24" fill="none" xmlns="http://www.w3.org/2000/svg">
    <path
        d="M6.05683 1.16666C4.64416 1.30641 3.693 1.62057 2.98233 2.33232C1.70941 3.60741 1.70941 5.66032 1.70941 9.76724V14.1222C1.70941 18.2281 1.70941 20.2821 2.98233 21.5582C4.25524 22.8344 6.30491 22.8333 10.4032 22.8333H12.5774C16.6757 22.8333 18.7253 22.8333 19.9982 21.5582C21.1542 20.3991 21.2614 18.6148 21.2712 15.2251"
        stroke="white" stroke-width="1.5" stroke-linecap="round" stroke-linejoin="round" />
    <path
        d="M10.4032 6.58333L11.4898 10.375C12.0964 11.5775 12.858 11.8917 14.7506 12C16.2553 11.9632 17.1285 11.7855 17.8739 11.1377C18.3819 10.6957 18.6116 10.0294 18.7232 9.36641L19.0958 7.125M21.8129 4.95833V10.375M8.31777 4.34408C10.037 2.91733 11.5688 2.15141 14.7463 1.30858C15.1047 1.21394 15.4818 1.21581 15.8393 1.314C18.6517 2.0875 20.1705 2.77433 22.205 4.30183C22.2917 4.36683 22.3177 4.48816 22.257 4.57808C21.5929 5.55525 20.1098 6.34716 16.472 7.75766C15.7143 8.04922 14.8745 8.04458 14.1201 7.74466C10.2461 6.20633 8.4651 5.383 8.24843 4.52825C8.24139 4.49413 8.24417 4.45872 8.25644 4.42613C8.26871 4.39353 8.28998 4.36508 8.31777 4.34408Z"
        stroke="white" stroke-width="1.5" stroke-linecap="round" stroke-linejoin="round" />
</svg>