<svg width="24" height="24" viewBox="0 0 24 24" fill="none" xmlns="http://www.w3.org/2000/svg">
    <path
        d="M9.07623 10.3604H1.28205C0.57519 10.3604 0 9.78448 0 9.07554V1.28205C0 0.575191 0.57519 0 1.28205 0H9.07623C9.78309 0 10.3583 0.575191 10.3583 1.28205V9.07623C10.3583 9.78448 9.78309 10.3604 9.07623 10.3604ZM1.28205 0.613998C1.10499 0.614182 0.935249 0.684647 0.810115 0.809911C0.68498 0.935176 0.614691 1.10499 0.614692 1.28205V9.07623C0.614692 9.4456 0.914068 9.74636 1.28205 9.74636H9.07623C9.25354 9.74581 9.42338 9.67494 9.5485 9.54931C9.67361 9.42367 9.74377 9.25354 9.74359 9.07623V1.28205C9.74359 1.10499 9.6733 0.935176 9.54817 0.809911C9.42303 0.684647 9.25329 0.614182 9.07623 0.613998H1.28205ZM22.72 10.3604H14.9238C14.5836 10.3596 14.2575 10.2239 14.0173 9.98302C13.7771 9.74213 13.6422 9.41575 13.6424 9.07554V1.28205C13.6424 0.575191 14.2169 0 14.9238 0H22.72C23.0597 0.000550802 23.3852 0.135867 23.6252 0.376238C23.8652 0.61661 24 0.94239 24 1.28205V9.07623C24 9.41608 23.8653 9.74208 23.6254 9.98278C23.3854 10.2235 23.0599 10.3593 22.72 10.3604ZM14.9238 0.613998C14.7467 0.614182 14.577 0.684647 14.4518 0.809911C14.3267 0.935176 14.2564 1.10499 14.2564 1.28205V9.07623C14.2564 9.4456 14.5558 9.74636 14.9238 9.74636H22.72C23.0804 9.74636 23.3853 9.43936 23.3853 9.07623V1.28205C23.3857 1.19445 23.3687 1.10764 23.3355 1.02661C23.3022 0.945572 23.2532 0.871905 23.1914 0.809834C23.1296 0.747763 23.0562 0.698511 22.9753 0.664904C22.8944 0.631297 22.8076 0.613998 22.72 0.613998H14.9238ZM9.07623 23.6764H1.28205C0.57519 23.6764 0 23.1012 0 22.3943V14.5981C0 13.8905 0.57519 13.3153 1.28205 13.3153H9.07623C9.78309 13.3153 10.3583 13.8905 10.3583 14.5981V22.3936C10.3583 23.1005 9.78309 23.6764 9.07623 23.6764ZM1.28205 13.93C1.10505 13.9304 0.935412 14.0009 0.810317 14.1261C0.685222 14.2513 0.614875 14.4211 0.614692 14.5981V22.3936C0.614692 22.7623 0.914068 23.0617 1.28205 23.0617H9.07623C9.25329 23.0615 9.42303 22.991 9.54817 22.8658C9.6733 22.7405 9.74359 22.5707 9.74359 22.3936V14.5981C9.74359 14.421 9.6733 14.2512 9.54817 14.1259C9.42303 14.0007 9.25329 13.9302 9.07623 13.93H1.28205ZM22.72 23.6764H14.9238C14.2169 23.6764 13.6424 23.1012 13.6424 22.3943V14.5981C13.6424 13.8905 14.2169 13.3153 14.9238 13.3153H22.72C23.4255 13.3153 24 13.8905 24 14.5981V22.3936C24.0002 22.7334 23.8655 23.0594 23.6255 23.2999C23.3855 23.5404 23.0598 23.6758 22.72 23.6764ZM14.9238 13.93C14.7468 13.9304 14.5771 14.0009 14.452 14.1261C14.3269 14.2513 14.2566 14.4211 14.2564 14.5981V22.3936C14.2564 22.7623 14.5558 23.0617 14.9238 23.0617H22.72C23.0873 23.0617 23.3853 22.7623 23.3853 22.3936V14.5981C23.3857 14.5105 23.3687 14.4237 23.3355 14.3426C23.3022 14.2616 23.2532 14.1879 23.1914 14.1258C23.1296 14.0638 23.0562 14.0145 22.9753 13.9809C22.8944 13.9473 22.8076 13.93 22.72 13.93H14.9238Z"
        fill="black" />
</svg>