<svg width="23" height="12" viewBox="0 0 23 12" fill="none" xmlns="http://www.w3.org/2000/svg">
    <path
        d="M17.825 0.62014C16.445 0.62014 15.1417 1.18014 14.2121 2.15014L7.475 8.39014C6.86167 9.03014 6.04708 9.38014 5.175 9.38014C3.38292 9.38014 1.91667 7.87014 1.91667 6.00014C1.91667 4.13014 3.38292 2.62014 5.175 2.62014C6.04708 2.62014 6.86167 2.97014 7.51333 3.65014L8.59625 4.65014L10.0625 3.31014L8.83583 2.20014C8.35593 1.69747 7.78531 1.29902 7.15696 1.02783C6.5286 0.756636 5.85498 0.61807 5.175 0.62014C2.31917 0.62014 0 3.04014 0 6.00014C0 8.96014 2.31917 11.3801 5.175 11.3801C6.555 11.3801 7.85833 10.8201 8.78792 9.85014L15.525 3.61014C16.1383 2.97014 16.9529 2.62014 17.825 2.62014C19.6171 2.62014 21.0833 4.13014 21.0833 6.00014C21.0833 7.87014 19.6171 9.38014 17.825 9.38014C16.9625 9.38014 16.1383 9.03014 15.4867 8.35014L14.375 7.34014L12.9375 8.68014L14.1642 9.80014C15.1369 10.809 16.4536 11.3737 17.825 11.3701C20.6808 11.3701 23 8.96014 23 6.00014C23 3.00014 20.6808 0.62014 17.825 0.62014Z"
        fill="black" />
</svg>