<svg width="21" height="18" viewBox="0 0 21 18" fill="none" xmlns="http://www.w3.org/2000/svg">
    <path
        d="M1.92707 9C2.13665 7.02006 2.9722 5.16934 4.30182 3.74L5.76616 5.2675L6.44418 4.5605L5.0062 3.0605C6.4243 1.83511 8.18216 1.11752 10.0207 1.0135V3.5H10.979V1.0135C12.8176 1.11717 14.5756 1.8348 15.9935 3.0605L14.6135 4.5L15.2915 5.207L16.6979 3.7395C18.0276 5.16897 18.8631 7.01988 19.0726 9H17.0568V10H19.1248C19.127 12.0855 18.4311 14.1064 17.1574 15.7135L15.5186 14.0035L14.8406 14.7105L16.5072 16.449L16.5009 16.455L17.1674 17.1735C18.0909 16.2429 18.8251 15.1276 19.326 13.8942C19.827 12.6608 20.0845 11.3346 20.0832 9.995C20.0832 4.475 15.7922 0 10.4998 0C5.20745 0 0.916511 4.4745 0.916511 9.995C0.91347 12.6298 1.91107 15.1585 3.69089 17.0275L4.3713 16.324L4.3622 16.314L5.80257 14.8115L5.12503 14.1045L3.72634 15.5635C2.52537 13.9801 1.87285 12.0194 1.87484 10H3.81691V9H1.92707Z"
        fill="black" />
    <path
        d="M9.31118 11.955C9.12589 11.9913 8.95991 12.0976 8.84496 12.2535L8.06008 13.4685C7.97239 14.075 8.03468 14.3165 8.37873 14.7085L9.64037 15.3505C9.81479 15.4255 10.0093 15.4305 10.1871 15.3665L16.2802 12.4305C17.1863 12.102 16.9438 11.122 16.0013 11.3105L9.31118 11.955Z"
        fill="black" />
</svg>