<svg width="22" height="18" viewBox="0 0 22 18" fill="none" xmlns="http://www.w3.org/2000/svg">
    <path
        d="M0.25 0.875V2.5H18.125V15.5H6.75V17.125H21.375V15.5H19.75V0.875H0.25ZM3.50162 3.3125C2.64044 3.3155 1.81536 3.65882 1.20626 4.26761C0.597158 4.87641 0.253426 5.70132 0.25 6.5625C0.25 8.34919 1.71575 9.8125 3.50162 9.8125C4.36237 9.80907 5.18687 9.46551 5.79536 8.85671C6.40386 8.24792 6.747 7.42325 6.75 6.5625C6.75 4.77744 5.28587 3.3125 3.50162 3.3125ZM8.375 4.125V5.75H12.4375V4.125H8.375ZM14.0625 4.125V5.75H16.5V4.125H14.0625ZM3.50162 4.9375C4.40675 4.9375 5.125 5.65494 5.125 6.5625C5.125 7.4725 4.40756 8.1875 3.50162 8.1875C2.59162 8.1875 1.875 7.4725 1.875 6.5625C1.875 5.65494 2.59244 4.9375 3.50162 4.9375ZM8.375 7.375V9H16.5V7.375H8.375ZM0.25 10.625V17.125H1.875V12.25H4.3125V17.125H5.9375V12.7846L7.6145 13.6719C8.08981 13.9238 8.661 13.9229 9.1355 13.6719V13.6735L12.0036 12.1566L11.2456 10.7184L8.37663 12.2354L5.86112 10.9077C5.51011 10.7221 5.11907 10.6251 4.722 10.625H0.25Z"
        fill="white" />
</svg>