<svg width="30" height="30" viewBox="0 0 30 30" fill="none" xmlns="http://www.w3.org/2000/svg">
    <path
        d="M12.7332 27C12.9563 27.4059 13.2844 27.7445 13.6832 27.9802C14.0819 28.216 14.5366 28.3404 14.9998 28.3404C15.4631 28.3404 15.9178 28.216 16.3165 27.9802C16.7152 27.7445 17.0433 27.4059 17.2665 27M4.33317 1.66666C2.73317 3.93332 1.6665 6.59999 1.6665 9.66666M28.3332 9.66666C28.3332 6.59999 27.2665 3.93332 25.6665 1.66666M6.99984 9.66666C6.99984 7.54492 7.84269 5.51009 9.34298 4.0098C10.8433 2.50951 12.8781 1.66666 14.9998 1.66666C17.1216 1.66666 19.1564 2.50951 20.6567 4.0098C22.157 5.51009 22.9998 7.54492 22.9998 9.66666C22.9998 19 26.9998 21.6667 26.9998 21.6667H2.99984C2.99984 21.6667 6.99984 19 6.99984 9.66666Z"
        stroke="black" stroke-width="2" stroke-linecap="round" stroke-linejoin="round" />
</svg>