<svg width="14" height="14" viewBox="0 0 14 14" fill="none" xmlns="http://www.w3.org/2000/svg">
    <path
        d="M5.10201 2.60537C5.94668 1.09071 6.36868 0.333374 7.00001 0.333374C7.63135 0.333374 8.05335 1.09071 8.89801 2.60537L9.11668 2.99737C9.35668 3.42804 9.47668 3.64337 9.66335 3.78537C9.85001 3.92737 10.0833 3.98004 10.55 4.08537L10.974 4.18137C12.614 4.55271 13.4333 4.73804 13.6287 5.36537C13.8233 5.99204 13.2647 6.64604 12.1467 7.95337L11.8573 8.29137C11.54 8.66271 11.3807 8.84871 11.3093 9.07804C11.238 9.30804 11.262 9.55604 11.31 10.0514L11.354 10.5027C11.5227 12.2474 11.6073 13.1194 11.0967 13.5067C10.586 13.894 9.81801 13.5407 8.28335 12.834L7.88535 12.6514C7.44935 12.45 7.23135 12.35 7.00001 12.35C6.76868 12.35 6.55068 12.45 6.11468 12.6514L5.71735 12.834C4.18201 13.5407 3.41401 13.894 2.90401 13.5074C2.39268 13.1194 2.47735 12.2474 2.64601 10.5027L2.69001 10.052C2.73801 9.55604 2.76201 9.30804 2.69001 9.07871C2.61935 8.84871 2.46001 8.66271 2.14268 8.29204L1.85335 7.95337C0.735348 6.64671 0.176681 5.99271 0.371348 5.36537C0.566014 4.73804 1.38668 4.55204 3.02668 4.18137L3.45068 4.08537C3.91668 3.98004 4.14935 3.92737 4.33668 3.78537C4.52401 3.64337 4.64335 3.42804 4.88335 2.99737L5.10201 2.60537Z"
        fill="#FFCD29" />
</svg>