<svg width="20" height="20" viewBox="0 0 20 20" fill="none" xmlns="http://www.w3.org/2000/svg">
    <path
        d="M4.6001 9.9228C9.6731 0.468798 15.9901 0.359798 18.5131 1.4868C19.6401 4.0108 19.5311 10.3268 10.0771 15.3998C9.9791 14.8358 9.4341 13.3598 8.0371 11.9628C6.6401 10.5658 5.1641 10.0208 4.6001 9.9228Z"
        stroke="white" stroke-width="1.5" stroke-linecap="round" stroke-linejoin="round" />
    <path
        d="M11.35 14.9498C13.189 15.8498 13.385 17.4638 13.64 18.9998C13.64 18.9998 17.49 16.1538 15.027 12.2498M5.05 8.7268C4.15 6.8878 2.536 6.6918 1 6.4368C1 6.4368 3.847 2.5868 7.75 5.0498M4.018 12.9118C3.506 13.4228 2.636 14.9078 3.25 16.7498C5.093 17.3638 6.577 16.4938 7.09 15.9828M15.3 6.4498C15.3 5.98567 15.1156 5.54055 14.7874 5.21236C14.4592 4.88417 14.0141 4.6998 13.55 4.6998C13.0859 4.6998 12.6408 4.88417 12.3126 5.21236C11.9844 5.54055 11.8 5.98567 11.8 6.4498C11.8 6.91393 11.9844 7.35905 12.3126 7.68724C12.6408 8.01542 13.0859 8.1998 13.55 8.1998C14.0141 8.1998 14.4592 8.01542 14.7874 7.68724C15.1156 7.35905 15.3 6.91393 15.3 6.4498Z"
        stroke="white" stroke-width="1.5" stroke-linecap="round" stroke-linejoin="round" />
</svg>