<svg width="19" height="18" viewBox="0 0 19 18" fill="none" xmlns="http://www.w3.org/2000/svg">
    <path fill-rule="evenodd" clip-rule="evenodd"
        d="M0.490223 3.237C0.57033 2.55231 0.898981 1.92084 1.41382 1.46241C1.92866 1.00398 2.59386 0.750475 3.28322 0.75H14.0252C14.2073 0.749848 14.3833 0.81596 14.5202 0.936L17.2802 3.36C17.9012 3.905 18.2442 4.7 18.2142 5.525L17.8702 15.099C17.8446 15.8107 17.5438 16.4847 17.0313 16.9792C16.5188 17.4736 15.8344 17.7499 15.1222 17.75H3.11322C2.47037 17.7505 1.84941 17.5164 1.36686 17.0917C0.884304 16.6669 0.573311 16.0807 0.492223 15.443C-0.00498289 11.5648 -0.0264756 7.6404 0.428223 3.757L0.490223 3.237ZM3.28422 2.25C2.61722 2.25 2.05622 2.75 1.97922 3.411L1.91922 3.931C1.47897 7.69341 1.49912 11.4955 1.97922 15.253C2.05322 15.823 2.53922 16.25 3.11322 16.25H3.75022V12C3.75022 11.034 4.53422 10.25 5.50022 10.25H12.5002C13.4662 10.25 14.2502 11.034 14.2502 12V16.25H15.1232C15.4471 16.2502 15.7584 16.1247 15.9916 15.8999C16.2247 15.6752 16.3616 15.3687 16.3732 15.045L16.7162 5.472C16.7231 5.28664 16.6886 5.10209 16.6152 4.93172C16.5419 4.76135 16.4315 4.60944 16.2922 4.487L13.7502 2.255V4.6C13.7502 5.06413 13.5658 5.50925 13.2377 5.83744C12.9095 6.16563 12.4644 6.35 12.0002 6.35H6.00022C5.53609 6.35 5.09097 6.16563 4.76279 5.83744C4.4346 5.50925 4.25022 5.06413 4.25022 4.6V2.25H3.28422ZM5.75022 2.25V4.6C5.75022 4.738 5.86222 4.85 6.00022 4.85H12.0002C12.0665 4.85 12.1301 4.82366 12.177 4.77678C12.2239 4.72989 12.2502 4.6663 12.2502 4.6V2.25H5.75022ZM12.7502 16.25H5.25022V12C5.25022 11.9337 5.27656 11.8701 5.32345 11.8232C5.37033 11.7763 5.43392 11.75 5.50022 11.75H12.5002C12.5665 11.75 12.6301 11.7763 12.677 11.8232C12.7239 11.8701 12.7502 11.9337 12.7502 12V16.25Z"
        fill="white" />
</svg>