<svg width="16" height="14" viewBox="0 0 16 14" fill="none" xmlns="http://www.w3.org/2000/svg">
    <path
        d="M2.33334 4.33338C2.33347 3.70133 2.49698 3.08004 2.80801 2.5298C3.11905 1.97957 3.56703 1.51908 4.10849 1.19303C4.64996 0.86697 5.26651 0.686417 5.89833 0.668891C6.53014 0.651364 7.15576 0.797458 7.71446 1.093C8.27317 1.38853 8.746 1.82348 9.08705 2.35562C9.42811 2.88776 9.62582 3.49903 9.66099 4.13011C9.69616 4.76119 9.5676 5.39064 9.28779 5.95739C9.00797 6.52413 8.58641 7.00892 8.064 7.36472C9.189 7.77734 10.1648 8.51719 10.8658 9.48905C11.5667 10.4609 11.9608 11.6203 11.9973 12.818C11.9958 12.9472 11.9444 13.0707 11.8539 13.1629C11.7634 13.255 11.6408 13.3086 11.5117 13.3125C11.3826 13.3163 11.257 13.2702 11.1612 13.1836C11.0653 13.0971 11.0066 12.9769 10.9973 12.848C10.9576 11.549 10.4137 10.3165 9.48078 9.41166C8.54787 8.50682 7.2993 8.00078 5.99967 8.00078C4.70003 8.00078 3.45147 8.50682 2.51855 9.41166C1.58564 10.3165 1.0417 11.549 1.002 12.848C0.995328 12.9786 0.937788 13.1014 0.841709 13.19C0.74563 13.2786 0.618655 13.3261 0.487985 13.3223C0.357315 13.3185 0.233344 13.2636 0.14263 13.1695C0.0519164 13.0754 0.00167509 12.9494 0.00266951 12.8187C0.0390371 11.6209 0.433074 10.4613 1.13406 9.48933C1.83505 8.51733 2.8109 7.77738 3.936 7.36472C3.44205 7.02831 3.03782 6.57626 2.75849 6.04793C2.47917 5.5196 2.33321 4.93101 2.33334 4.33338ZM6 1.66672C5.29276 1.66672 4.61448 1.94767 4.11438 2.44776C3.61429 2.94786 3.33334 3.62614 3.33334 4.33338C3.33334 5.04063 3.61429 5.7189 4.11438 6.219C4.61448 6.7191 5.29276 7.00005 6 7.00005C6.70725 7.00005 7.38552 6.7191 7.88562 6.219C8.38572 5.7189 8.66667 5.04063 8.66667 4.33338C8.66667 3.62614 8.38572 2.94786 7.88562 2.44776C7.38552 1.94767 6.70725 1.66672 6 1.66672ZM11.5267 4.33338C11.4284 4.33338 11.332 4.34005 11.2373 4.35338C11.1712 4.36522 11.1034 4.36362 11.038 4.34868C10.9725 4.33374 10.9107 4.30577 10.8563 4.26644C10.8019 4.22711 10.756 4.17722 10.7212 4.11974C10.6865 4.06227 10.6637 3.99839 10.6542 3.93192C10.6447 3.86545 10.6487 3.79775 10.666 3.73285C10.6832 3.66796 10.7133 3.6072 10.7546 3.5542C10.7958 3.5012 10.8473 3.45705 10.9059 3.42438C10.9646 3.39171 11.0292 3.37119 11.096 3.36405C11.7591 3.26819 12.4352 3.39551 13.0179 3.726C13.6007 4.05648 14.057 4.57136 14.3151 5.1896C14.5731 5.80784 14.6183 6.49434 14.4435 7.14107C14.2687 7.7878 13.8838 8.35804 13.3493 8.76205C14.1349 9.11381 14.8019 9.68538 15.2699 10.4078C15.7379 11.1302 15.9868 11.9726 15.9867 12.8334C15.9867 12.966 15.934 13.0932 15.8402 13.1869C15.7465 13.2807 15.6193 13.3334 15.4867 13.3334C15.3541 13.3334 15.2269 13.2807 15.1331 13.1869C15.0393 13.0932 14.9867 12.966 14.9867 12.8334C14.9869 12.0894 14.7473 11.3652 14.3035 10.7681C13.8596 10.171 13.2352 9.73288 12.5227 9.51872L12.1667 9.41205V8.29472L12.44 8.15538C12.8452 7.95015 13.1694 7.61435 13.3602 7.20221C13.5511 6.79007 13.5975 6.32564 13.4919 5.88389C13.3863 5.44214 13.135 5.04886 12.7784 4.76753C12.4218 4.48621 11.9809 4.33326 11.5267 4.33338Z"
        fill="#736C6C" />
</svg>