<svg width="14" height="13" viewBox="0 0 14 13" fill="none" xmlns="http://www.w3.org/2000/svg">
    <path
        d="M12.9722 0.251C12.7426 0.123385 12.4901 0.0422532 12.2291 0.0122373C11.9681 -0.0177787 11.7038 0.00390951 11.4512 0.0760633C11.1986 0.148217 10.9627 0.269423 10.757 0.432758C10.5513 0.596093 10.3797 0.798358 10.2522 1.028L6.53916 7.71L4.41416 5.585C4.22967 5.39398 4.00898 5.24161 3.76497 5.1368C3.52096 5.03198 3.25852 4.97681 2.99296 4.9745C2.72741 4.97219 2.46405 5.02279 2.21825 5.12336C1.97246 5.22392 1.74916 5.37242 1.56137 5.56021C1.37359 5.748 1.22508 5.9713 1.12452 6.21709C1.02396 6.46288 0.973354 6.72624 0.975661 6.9918C0.977969 7.25736 1.03314 7.5198 1.13796 7.76381C1.24278 8.00782 1.39514 8.22851 1.58616 8.413L5.58616 12.413C5.96416 12.792 6.47416 13 7.00016 13L7.27716 12.98C7.58371 12.9371 7.87612 12.8237 8.13138 12.6486C8.38664 12.4735 8.59777 12.2415 8.74816 11.971L13.7482 2.971C13.8758 2.74145 13.957 2.48901 13.9871 2.22808C14.0172 1.96715 13.9956 1.70285 13.9235 1.45028C13.8515 1.1977 13.7304 0.961788 13.5671 0.756015C13.4039 0.550242 13.2017 0.378638 12.9722 0.251Z"
        fill="#14AE5C" />
</svg>